<svg id="Layer_1" data-name="Layer 1" xmlns="http://www.w3.org/2000/svg" viewBox="0 0 102.29 53.61" class="cops-svg">
  <defs>
    <style>
      .cls-1{fill:#D3D4D4}
    </style>
  </defs>
  <path d="M228.72 129.18L132 141.72a2.79 2.79 0 01-3.15-2.76v-27.52a2.79 2.79 0 012.79-2.79h96.71a2.79 2.79 0 012.79 2.79v14.34c0 1.4-1.04 3.22-2.42 3.4z" transform="translate(-128.86 -107.18)"/>
  <path d="M188.69 120.41v12a.46.46 0 00.52.46l5.9-.76a.46.46 0 00.4-.46v-11.2a.46.46 0 00-.46-.46h-5.9a.46.46 0 00-.46.42zM165.39 120.41v15a.46.46 0 00.52.46l6.73-.87a.46.46 0 00.4-.46v-14.13a.46.46 0 00-.46-.46h-6.73a.46.46 0 00-.46.46z" transform="translate(-128.86 -107.18)"/>
  <path d="M128.86 109.36v28.54a2.42 2.42 0 002.73 2.4l5.08-.66a.46.46 0 00.4-.46v-20.6q0-3.43 3.31-3.43H152q3.41 0 3.41 3.43v8.27a.46.46 0 01-.46.46h-4.63a.46.46 0 01-.46-.46v-6.44a.46.46 0 00-.46-.46h-6.3a.46.46 0 00-.46.46v17.93a.46.46 0 00.52.46l16.25-2.11a.46.46 0 00.4-.46v-17.64q0-3.43 3.31-3.43h12.11q3.39 0 3.39 3.43v15.09a.46.46 0 00.52.46l3.56-.46a.46.46 0 00.4-.46v-17.6a.46.46 0 01.46-.46h14.16q3.41 0 3.41 3.43v12.17a.46.46 0 00.52.46l4.3-.56a.46.46 0 00.26-.79 4 4 0 01-1.22-3v-8.3q0-3.43 3.36-3.43h10.77A3.85 3.85 0 01223 119v7.42a.46.46 0 01-.46.46h-4.66a.46.46 0 01-.46-.46v-6.11a.46.46 0 00-.46-.46H211a.46.46 0 00-.46.46v6.09a.46.46 0 00.15.34l2.92 2.76a.46.46 0 00.38.12l14.44-1.87a3.07 3.07 0 002.68-3v-15a2.53 2.53 0 00-2.53-2.53H131a2.18 2.18 0 00-2.14 2.14z" transform="translate(-128.86 -107.18)"/>
  <path class="cls-1" d="M149.87 120.8v5.66a.86.86 0 00.86.86h3.84a.86.86 0 00.86-.86v-7.87q0-3.43-3.41-3.43h-11.64q-3.31 0-3.31 3.43v20a.86.86 0 001 .85l3.87-.5a.86.86 0 00.75-.85V120.8a.86.86 0 01.86-.86H149a.86.86 0 01.87.86zM175.24 115.16h-12.11q-3.31 0-3.31 3.43v17a.9.9 0 001 .89l3.78-.49a.9.9 0 00.78-.89v-14.25a.9.9 0 01.9-.9h5.85a.9.9 0 01.9.9v13.05a.9.9 0 001 .89l3.78-.49a.9.9 0 00.78-.89v-14.82q.04-3.43-3.35-3.43zM197.73 115.16H184a.9.9 0 00-.9.9v16.54a.9.9 0 001 .89l3.78-.49a.9.9 0 00.79-.89v-11.26a.9.9 0 01.9-.9h5a.9.9 0 01.9.9V131a.9.9 0 001 .89l3.83-.5a.9.9 0 00.79-.89v-11.91q.05-3.43-3.36-3.43zM211.47 119.85h5.05a.88.88 0 01.88.88V126a.88.88 0 00.88.88h3.81a.88.88 0 00.91-.88v-6.58a4.27 4.27 0 00-4.27-4.27h-10.37q-3.36 0-3.36 3.43v8.3a4 4 0 001.22 3l.4.38a.88.88 0 00.72.23l4.62-.6a.88.88 0 00.49-1.52l-1.59-1.5a.88.88 0 01-.28-.64v-5.48a.88.88 0 01.89-.9z" transform="translate(-128.86 -107.18)"/>
  <path d="M140.38 155.18h10.8a4.25 4.25 0 004.25-4.25v-7.55a.84.84 0 00-.84-.84h-3.88a.84.84 0 00-.84.84v6.17a.84.84 0 01-.84.84h-5.55a.84.84 0 01-.84-.84v-7a.84.84 0 00-.95-.83l-3.9.51a.84.84 0 00-.73.83v8.73q.01 3.39 3.32 3.39zM163.13 155.18h12.11q3.39 0 3.39-3.41v-13.64a1.07 1.07 0 00-1.21-1.06l-3.44.45a1.07 1.07 0 00-.93 1.06v10.74a1.07 1.07 0 01-1.07 1.07h-5.51a1.07 1.07 0 01-1.07-1.07v-9.47a1.07 1.07 0 00-1.21-1.06l-3.44.45a1.07 1.07 0 00-.93 1.06v11.48q-.01 3.4 3.31 3.4zM188.69 153.84v-11.59a.59.59 0 01.59-.59h8.45q3.41 0 3.41-3.48v-3.51a.59.59 0 00-.67-.58l-4.45.58a.59.59 0 00-.51.58v1a.59.59 0 01-.59.59h-5.64a.59.59 0 01-.59-.59.59.59 0 00-.67-.58l-4.4.57a.59.59 0 00-.51.58V154a1.19 1.19 0 001.19 1.19h3a1.34 1.34 0 001.39-1.35zM216.39 150.48h-4.79a1 1 0 01-1-1v-5.58a1 1 0 00-1-1H206a1 1 0 00-1 1v7.88q0 3.41 3.36 3.41h11.24q3.39 0 3.39-3.41v-8.89a4 4 0 00-1.22-3l-7.61-7.17a1 1 0 00-.83-.27L209 133a1 1 0 00-.57 1.74l8.61 8.15a1 1 0 01.32.74v5.87a1 1 0 01-.97.98z" transform="translate(-128.86 -107.18)"/>
  <path class="cls-1" d="M131.5 127.32a55.8 55.8 0 01-1.22-9.08c-.12-1.52-.16-3-.19-4.55v-1.16a5 5 0 01.18-1.54 2.87 2.87 0 011.43-1.71 3.83 3.83 0 011.71-.39c3.13-.06 6.1.07 9.15.27a72.49 72.49 0 019.07 1.12c-3 .45-6 .75-9.06 1s-6.07.39-9 .54a1.15 1.15 0 00-.49.1s.06-.07 0 0a2.65 2.65 0 00-.08.71l-.06 1.11c-.09 1.5-.16 3-.3 4.51a84 84 0 01-1.14 9.07z" transform="translate(-128.86 -107.18)"/>
  <path d="M228.63 142.36a55.79 55.79 0 011.22 9.08c.12 1.52.16 3 .19 4.55v1.16a5 5 0 01-.18 1.54 2.87 2.87 0 01-1.43 1.71 3.83 3.83 0 01-1.71.39c-3.13.06-6.1-.07-9.15-.27a72.48 72.48 0 01-9.07-1.12c3-.45 6-.75 9.06-1s6.07-.39 9-.54a1.16 1.16 0 00.49-.1s-.06.07 0 0a2.65 2.65 0 00.08-.71l.06-1.11c.09-1.5.16-3 .3-4.51a84 84 0 011.14-9.07z" transform="translate(-128.86 -107.18)"/>
  <path class="cls-1" d="M228.65 123.35a52.15 52.15 0 01-1.2-6.66c-.14-1.1-.24-2.21-.34-3.31l-.07-.81a4.4 4.4 0 00-.08-.6c0-.09 0-.08 0 0a7 7 0 00-1.28-.15l-1.65-.13c-1.1-.1-2.21-.2-3.32-.33-2.22-.27-4.43-.58-6.67-1.07a37.26 37.26 0 016.7-1.13c1.12-.1 2.24-.16 3.37-.19h1.69a8.21 8.21 0 012 .18 3 3 0 011.38.85 3.06 3.06 0 01.7 1.44 6 6 0 01.08 1.06v.86c0 1.13 0 2.25-.14 3.37a30.9 30.9 0 01-1.17 6.62z" transform="translate(-128.86 -107.18)"/>
  <path d="M131.48 145.3a52.15 52.15 0 011.2 6.66c.14 1.1.24 2.21.34 3.31l.07.81a4.4 4.4 0 00.08.6c0 .09 0 .08 0 0a7 7 0 001.28.15l1.65.13c1.1.1 2.21.2 3.32.33 2.22.27 4.43.58 6.67 1.07a37.26 37.26 0 01-6.7 1.13c-1.12.1-2.24.16-3.37.19h-1.69a8.21 8.21 0 01-2-.18 3 3 0 01-1.38-.85 3.06 3.06 0 01-.7-1.44 6 6 0 01-.08-1.06v-.86c0-1.13 0-2.25.14-3.37a30.9 30.9 0 011.17-6.62z" transform="translate(-128.86 -107.18)"/>
</svg>
